<svg width="90" height="39" fill="none" xmlns="http://www.w3.org/2000/svg"><path fill-rule="evenodd" clip-rule="evenodd" d="M3.428 3.792H0v17.24h10.063v-3.28H3.43l-.001-13.96ZM72.341 21.008h3.206V3.446c0-.148 0-.271.025-.42h-3.23v17.982Z" fill="#FF4766"/><path d="M39.043 9.12v-.396H35.91v1.431c-.073-.049-.098-.049-.123-.073-1.455-1.677-3.304-2.024-5.352-1.53-2.788.666-4.637 3.083-4.686 6.019-.074 3.774 2.96 6.659 6.734 6.388 1.258-.099 2.343-.617 3.181-1.554.074-.074.074-.197.123-.295l.123.123c0 .494.025.961 0 1.455-.049.986-.444 1.825-1.332 2.343-1.677.962-4.02.42-5.08-1.158-.025-.025-.05-.074-.099-.123-.887.518-1.775 1.01-2.712 1.53.519.936 1.185 1.627 2.097 2.096 1.85.986 3.799 1.134 5.82.642 1.505-.345 2.737-1.11 3.602-2.417.666-1.035.888-2.171.888-3.379-.051-3.654-.051-7.377-.051-11.102Zm-6.659 8.928c-1.998 0-3.452-1.431-3.452-3.379 0-1.947 1.48-3.354 3.477-3.354 1.997 0 3.477 1.431 3.501 3.354 0 1.973-1.478 3.379-3.526 3.379ZM61.292 9.046c-.47.27-.864.642-1.308 1.01v-6.24h-3.182v17.217h3.182v-1.308c.47.344.863.74 1.332 1.01 2.073 1.184 4.883.79 6.659-.887 2.663-2.49 2.837-6.857.369-9.545-1.825-1.997-4.834-2.54-7.052-1.257Zm2.12 9.299c-2.024 0-3.428-1.43-3.428-3.452 0-2.022 1.406-3.477 3.427-3.477 2 0 3.453 1.43 3.477 3.452.002 2.022-1.429 3.477-3.477 3.477ZM17.511 8.38c-3.675 0-6.56 2.837-6.585 6.486 0 3.651 2.887 6.511 6.536 6.536 3.7 0 6.61-2.862 6.61-6.511.026-3.65-2.885-6.511-6.56-6.511Zm.099 9.891c-1.999.05-3.428-1.332-3.477-3.354-.05-1.923 1.357-3.403 3.304-3.452 1.923-.05 3.403 1.382 3.453 3.354.05 1.923-1.38 3.401-3.28 3.452ZM47.898 8.38c-3.675-.025-6.584 2.837-6.584 6.486 0 3.65 2.861 6.536 6.535 6.536 3.7 0 6.61-2.862 6.61-6.511.024-3.65-2.862-6.511-6.56-6.511Zm-.024 9.891c-1.923 0-3.354-1.43-3.354-3.378 0-1.948 1.406-3.404 3.354-3.404 1.923-.024 3.403 1.431 3.403 3.404 0 1.923-1.43 3.378-3.403 3.378Z" fill="#FF4766"/><path fill-rule="evenodd" clip-rule="evenodd" d="M86.941 8.7c-.27 0-.344.098-.42.32-.518 1.628-1.06 3.23-1.603 4.834-.345 1.01-.666 1.998-1.035 3.083-.074-.172-.123-.27-.173-.37-.986-2.515-1.974-5.055-2.96-7.572-.049-.123-.172-.295-.27-.295-1.085-.025-2.196-.025-3.354-.025.073.173.123.296.172.42 1.603 3.725 3.181 7.448 4.785 11.173.049.123.123.295.098.42-.394 1.11-1.035 1.999-2.319 2.196-.295.049-.567.073-.887.098v2.936c1.53.073 2.935-.222 4.118-1.183 1.11-.888 1.8-2.073 2.27-3.354 1.554-4.143 3.058-8.287 4.588-12.456.024-.074.024-.148.049-.246-1.01.02-2.048.045-3.059.02Z" fill="#FF4766"/><path d="m46.345 25.35 3.058 1.134c-2.614 6.881-9.299 11.543-16.845 11.543-7.622 0-14.33-4.735-16.894-11.691l3.058-1.11c2.097 5.698 7.598 9.57 13.838 9.57a14.673 14.673 0 0 0 13.785-9.446ZM12.579 5.469l-2.417-2.27c3.946-4.266 10.358-4.266 14.305 0L22.05 5.47c-2.639-2.86-6.857-2.86-9.471 0ZM43.014 5.469l-2.417-2.27c3.946-4.266 10.358-4.266 14.305 0l-2.417 2.27c-2.639-2.86-6.831-2.86-9.471 0Z" fill="#2877D4"/></svg>