<svg width="47" height="42" fill="none" xmlns="http://www.w3.org/2000/svg"><path d="M2.5 14.5h2.175a2.313 2.313 0 0 1 2.3 2.5L5.938 29.45a3.495 3.495 0 0 0 3.487 3.787h13.313c1.8 0 3.375-1.475 3.512-3.262l.675-9.375c.15-2.075-1.425-3.763-3.512-3.763H7.274M11.25 22h15m-5.938 17.5a1.563 1.563 0 1 0 0-3.126 1.563 1.563 0 0 0 0 3.126Zm-10 0a1.563 1.563 0 1 0 0-3.126 1.563 1.563 0 0 0 0 3.126Z" stroke="#002959" stroke-width="1.4" stroke-miterlimit="10" stroke-linecap="round" stroke-linejoin="round"/><g filter="url(#a)"><circle cx="27" cy="16" r="8" fill="#FF4766"/><path d="M23.566 18.516v-1.153L26.961 12h.96v1.64h-.585l-2.285 3.622v.062h4.738v1.192h-6.223ZM27.383 20v-1.836l.015-.516V12h1.368v8h-1.383Z" fill="#fff"/></g><defs><filter id="a" x="11" y="0" width="36" height="36" filterUnits="userSpaceOnUse" color-interpolation-filters="sRGB"><feFlood flood-opacity="0" result="BackgroundImageFix"/><feColorMatrix in="SourceAlpha" values="0 0 0 0 0 0 0 0 0 0 0 0 0 0 0 0 0 0 127 0" result="hardAlpha"/><feOffset dx="2" dy="2"/><feGaussianBlur stdDeviation="5"/><feComposite in2="hardAlpha" operator="out"/><feColorMatrix values="0 0 0 0 1 0 0 0 0 0.278431 0 0 0 0 0.4 0 0 0 0.3 0"/><feBlend in2="BackgroundImageFix" result="effect1_dropShadow_0_61"/><feBlend in="SourceGraphic" in2="effect1_dropShadow_0_61" result="shape"/></filter></defs></svg>